<svg width="420" height="320" viewBox="0 0 420 320" fill="none" xmlns="http://www.w3.org/2000/svg">
  <defs>
    <linearGradient id="bg" x1="40" y1="16" x2="382" y2="306" gradientUnits="userSpaceOnUse">
      <stop stop-color="#FFF3DB"/>
      <stop offset="1" stop-color="#FFE0B7"/>
    </linearGradient>
    <radialGradient id="fur" cx="0" cy="0" r="1" gradientUnits="userSpaceOnUse" gradientTransform="translate(210 166) rotate(90) scale(118 124)">
      <stop stop-color="#FFECCF"/>
      <stop offset="1" stop-color="#F0B26A"/>
    </radialGradient>
  </defs>
  <rect x="10" y="10" width="400" height="300" rx="34" fill="url(#bg)"/>
  <circle cx="110" cy="72" r="14" fill="#FFE59C"/>
  <circle cx="328" cy="70" r="10" fill="#FFE59C"/>
  <ellipse cx="210" cy="248" rx="108" ry="34" fill="#E4C9A8" fill-opacity="0.5"/>
  <path d="M146 114L120 70L172 96L146 114Z" fill="#F8C98F"/>
  <path d="M274 114L300 70L248 96L274 114Z" fill="#F8C98F"/>
  <circle cx="210" cy="166" r="92" fill="url(#fur)"/>
  <circle cx="177" cy="158" r="19" fill="#2D2A26"/>
  <circle cx="243" cy="158" r="19" fill="#2D2A26"/>
  <circle cx="171" cy="152" r="4" fill="#fff"/>
  <circle cx="237" cy="152" r="4" fill="#fff"/>
  <ellipse cx="210" cy="193" rx="20" ry="14" fill="#FFD8BA"/>
  <path d="M199 191C203 196 217 196 221 191" stroke="#5A3721" stroke-width="4" stroke-linecap="round"/>
  <path d="M184 206C192 218 228 218 236 206" stroke="#5A3721" stroke-width="5" stroke-linecap="round"/>
  <path d="M151 186L101 176" stroke="#D18C58" stroke-width="4" stroke-linecap="round"/>
  <path d="M151 196L95 196" stroke="#D18C58" stroke-width="4" stroke-linecap="round"/>
  <path d="M151 206L102 216" stroke="#D18C58" stroke-width="4" stroke-linecap="round"/>
  <path d="M269 186L319 176" stroke="#D18C58" stroke-width="4" stroke-linecap="round"/>
  <path d="M269 196L325 196" stroke="#D18C58" stroke-width="4" stroke-linecap="round"/>
  <path d="M269 206L318 216" stroke="#D18C58" stroke-width="4" stroke-linecap="round"/>
  <path d="M128 116C137 108 149 108 158 116" stroke="#A86E44" stroke-width="4" stroke-linecap="round"/>
  <path d="M262 116C271 108 283 108 292 116" stroke="#A86E44" stroke-width="4" stroke-linecap="round"/>
  <rect x="134" y="235" width="152" height="36" rx="18" fill="#F6C184"/>
  <text x="210" y="259" text-anchor="middle" font-size="16" fill="#6A4327" font-family="Verdana">今天超开心</text>
</svg>
