<svg width="420" height="320" viewBox="0 0 420 320" fill="none" xmlns="http://www.w3.org/2000/svg">
<rect x="10" y="10" width="400" height="300" rx="32" fill="#FFF3F8"/>
<circle cx="210" cy="172" r="94" fill="#F3C5DD"/>
<path d="M146 114L120 70L172 96L146 114Z" fill="#EFB0D0"/>
<path d="M274 114L300 70L248 96L274 114Z" fill="#EFB0D0"/>
<circle cx="178" cy="162" r="18" fill="#43263F"/>
<circle cx="242" cy="162" r="18" fill="#43263F"/>
<circle cx="171" cy="156" r="4" fill="#fff"/>
<circle cx="235" cy="156" r="4" fill="#fff"/>
<ellipse cx="210" cy="194" rx="18" ry="12" fill="#FFE5F2"/>
<path d="M196 207C206 218 214 218 224 207" stroke="#6A355F" stroke-width="4" stroke-linecap="round"/>
<path d="M150 188L100 178" stroke="#C475A4" stroke-width="4" stroke-linecap="round"/>
<path d="M150 198L95 198" stroke="#C475A4" stroke-width="4" stroke-linecap="round"/>
<path d="M270 188L320 178" stroke="#C475A4" stroke-width="4" stroke-linecap="round"/>
<path d="M270 198L325 198" stroke="#C475A4" stroke-width="4" stroke-linecap="round"/>
<text x="210" y="266" text-anchor="middle" font-family="Verdana" font-size="16" fill="#6F335F">糯糯 · 细致谨慎</text>
</svg>
